# xmcd
#
# Track frame offsets:
# 150
# 19344
# 41265
# 60435
# 80265
# 100237
# 123040
# 144627
# 163877
# 184564
# 203506
# 220779
# 238217
#
# Disc length: 3507 seconds
#
#
# Revision: 6
# Processed by: cddbd v1.5.2PL0 Copyright (c) Steve Scherf et al.
# Submitted via: FreeRIP 2.951 
#
DISCID=a70db10d
DTITLE=Dés László - Various Artists - Dés  "évek óta már" 2
DYEAR=2001
DGENRE=Rock
TTITLE0=Dés László - Ha lenne jövõ [Nemes]
TTITLE1=Czerovszky Henriett - A hiába szép [Bereményi]
TTITLE2=Udvaros Dorottya and Somló Tamás - Vetkõzés [Bereményi]
TTITLE3=Básti Juli - Gyönge hely [Bereményi]
TTITLE4=Jazz+Az - Tíz kicsi bûnjel [Bereményi and Geszti]
TTITLE5=Dés László - Végtelen út [Nemes]
TTITLE6=Jazz+Az - Süss fel nap! [Geszti]
TTITLE7=Jazz+Az - Ma jól vagyok [Geszti]
TTITLE8=Jazz+Az - Helló édes! [Geszti]
TTITLE9=Fekete Jenõ - Egy jó kis nap [Geszti]
TTITLE10=Majsai Gábor - Rossz pénz [Geszti]
TTITLE11=Dés László - Évek óta már [Geszti]
TTITLE12=Jazz+Az - Cantaloop (I can't techno) [nem Dés írta, csak szaxizik and Geszti]
EXTD=YEAR: 2001
EXTT0=
EXTT1=
EXTT2=
EXTT3=
EXTT4=
EXTT5=
EXTT6=
EXTT7=
EXTT8=
EXTT9=
EXTT10=
EXTT11=
EXTT12=
PLAYORDER=
